# xmcd
#
# Track frame offsets: 
#        150
#        17077
#        36747
#        55759
#        75680
#        89779
#        106848
#        124132
#        142532
#        157264
#
# Disc length: 2351 seconds
#
# Revision: 0
# Processed by: cddbd v1.5.2PL0 Copyright (c) Steve Scherf et al.
# Submitted via: ExactAudioCopyFreeDBPlugin 1.0
#
DISCID=83092d0a
DTITLE=John Berry - Those Were The Days 
DYEAR=2007
DGENRE=Country
TTITLE0=You Still Own Me
TTITLE1=If That Ain't Love
TTITLE2=We Were There
TTITLE3=Fools Lullaby
TTITLE4=Somethin' Somethin'
TTITLE5=Those Were the Days
TTITLE6=Day and Night
TTITLE7=Just Married
TTITLE8=A Woman Like You
TTITLE9=The Balloon Song
EXTD=
EXTT0=
EXTT1=
EXTT2=
EXTT3=
EXTT4=
EXTT5=
EXTT6=
EXTT7=
EXTT8=
EXTT9=
PLAYORDER=
